<?xml version="1.0" encoding="UTF-8" standalone="no"?>
<svg width="40px" height="40px" viewBox="0 0 40 40" version="1.1" xmlns="http://www.w3.org/2000/svg" xmlns:xlink="http://www.w3.org/1999/xlink">
    <!-- Generator: Sketch 3.8.3 (29802) - http://www.bohemiancoding.com/sketch -->
    <title>Icons/fruit</title>
    <desc>Created with Sketch.</desc>
    <defs></defs>
    <g id="Symbols" stroke="none" stroke-width="1" fill="none" fill-rule="evenodd">
        <g id="Icons/fruit" fill="#FFFFFF">
            <g id="Page-1" transform="translate(6.000000, 7.000000)">
                <path d="M9.22383463,9.17884198 C8.94246926,8.22588441 8.88862914,7.08594341 9.28290051,5.75818012 C9.44240771,5.22299245 10.092165,4.89714018 10.7231567,5.02945595 C11.0499584,5.09824031 11.310912,5.27427413 11.4659855,5.50156215 C12.3620899,4.90593968 13.6486234,4.81143543 14.7831795,4.7276 C15.9729231,4.6396 17.1975385,4.5476 18.0365128,4.0116 C18.6436923,3.6256 18.9821538,2.6256 18.510359,1.9116 C18.2847179,1.5696 17.9401026,1.3336 17.5318974,1.2476 C17.1257436,1.1596 16.7093333,1.2336 16.3606154,1.4516 C16.1206154,1.6016 15.7965128,1.5356 15.6447179,1.2996 C15.4888205,1.0636 15.5585641,0.7516 15.7985641,0.5996 C16.3831795,0.2356 17.0785641,0.1116 17.7534359,0.2576 C18.4324103,0.4016 19.0149744,0.7956 19.3862564,1.3656 C20.1308718,2.4896 19.7657436,4.1256 18.6067692,4.8596 C17.5421538,5.5376 16.1780513,5.6376 14.8611282,5.7356 C12.7148958,5.89325988 11.4953883,6.06536382 11.3839717,7.64931528 C11.4247376,9.9888522 13.4461821,11.1539793 13.4699646,11.1673278 C14.018857,11.4754063 14.1642901,12.0955131 13.7983618,12.555656 C13.5684837,12.8439859 13.1931727,13 12.8084788,13 C12.5832922,13 12.3557599,12.9447039 12.1516845,12.8321367 C12.0849447,12.7936512 11.4256273,12.4137679 10.7271743,11.6903823 C10.852114,11.9709627 10.9321823,12.1754748 10.9612514,12.2516416 C11.0647922,12.5243484 10.9537211,12.8372215 10.7127534,12.9577199 C10.650629,12.985202 10.5866219,13 10.5244974,13 C10.3418891,13 10.1649285,12.8773876 10.085861,12.6744429 C9.76206064,11.8288402 8.67958863,9.54359869 7.55193518,9.13136734 C7.25825582,9.02143898 6.99281486,9.05737709 6.7179611,9.23918169 C6.4920539,9.38927618 6.20025709,9.30682991 6.06659533,9.05103507 C5.93293357,8.79524024 6.00635341,8.46756916 6.23414317,8.31747467 C6.73866926,7.98134757 7.29590702,7.90947134 7.84937967,8.11453001 C8.35405468,8.29994637 8.81732984,8.69842543 9.22383463,9.17884198 Z" id="Combined-Shape"></path>
                <path d="M4.25545629,11.8206253 C4.36168602,11.8206253 4.46565555,11.8491498 4.56058425,11.9040044 C4.75270185,12.0246846 4.85893158,12.2441031 4.82050806,12.4657159 C4.75948247,12.8299506 4.91091635,13.2731761 5.08269209,13.6220516 C6.68291872,12.3713659 6.88633736,11.4103127 6.85243425,10.9275919 C6.81853114,10.4404827 6.52018381,10.0148108 6.03423928,9.7668678 C5.87602478,9.68348875 5.76527463,9.53647833 5.73589194,9.36313769 C5.68842759,9.06911684 5.43076398,8.11025782 4.16956842,8.11025782 C3.47116442,8.11025782 2.61454593,8.41086122 1.67203957,8.99012617 C1.95456546,9.26001097 2.33654046,9.54306089 2.70947463,9.60449808 C2.93775555,9.63960505 3.12083232,9.80855732 3.17281709,10.0257817 C3.22480185,10.243006 3.13891398,10.4733955 2.95131679,10.6028524 C2.93775555,10.6116292 1.77374889,11.4432255 1.29232478,12.75096 C2.72755629,12.7334065 3.91416502,11.9303346 3.92546605,11.9237521 C4.02265496,11.8557323 4.14018573,11.8206253 4.25545629,11.8206253 M4.91091635,15 C4.73462019,15 4.56058425,14.916621 4.44757389,14.7652222 C4.37976768,14.6730664 3.93224667,14.0499177 3.74464948,13.2907296 C2.9852199,13.6352167 1.78278972,14.0148108 0.47865022,13.8019748 C0.164481433,13.7515085 -0.0457178274,13.4662644 0.00852714301,13.1634668 C0.223246818,11.8886451 0.980416197,10.9122326 1.56354963,10.3241909 C0.880967085,9.90729567 0.419884836,9.29731212 0.347558208,9.20515634 C0.164481433,8.95282501 0.225507025,8.6083379 0.483170635,8.43060889 C1.85059593,7.47833242 3.08918942,7 4.16956842,7 C5.49178957,7 6.50210215,7.74602304 6.80949031,8.92210642 C7.50111369,9.36752606 7.94185407,10.0718596 7.99383884,10.8551838 C8.05938484,11.78113 7.6322057,13.2380691 5.24316679,14.8946791 C5.14597789,14.964893 5.02844712,15 4.91091635,15" id="Fill-6"></path>
                <path d="M20.7277388,19.0111395 C20.5107067,18.9355511 20.3039119,18.8272758 20.1401141,18.6597557 C19.9824587,18.5004072 19.8657528,18.3124577 19.7940913,18.1142936 C20.0725475,17.5667886 20.2179181,16.9743391 20.2117757,16.3757609 C20.2404403,16.3798468 20.26501,16.3859755 20.2916271,16.3859755 C20.8812992,16.3859755 21.4443542,16.2368417 21.9603173,15.9794326 C22.1609696,16.057064 22.3452422,16.1755538 22.4988026,16.3349023 C22.7977336,16.6352129 22.9615314,17.0397129 22.9512941,17.468728 C22.9471991,17.9079577 22.7670215,18.3206294 22.4476158,18.6352405 C22.4435209,18.6413693 22.435331,18.6434122 22.4250936,18.649541 C21.9685072,19.0867278 21.2948887,19.2052177 20.7277388,19.0111395 M17.6933843,15.305266 C17.8510397,15.4666574 17.9656982,15.652564 18.0414547,15.854814 C18.2605342,16.4411346 18.125401,17.1336876 17.6421975,17.6096901 C17.6381025,17.6158189 17.6340076,17.6158189 17.6258177,17.6219477 C17.6258177,17.6239906 17.6237702,17.6239906 17.6237702,17.6239906 C17.1671838,18.0632204 16.4853754,18.1817102 15.9182255,17.9835461 C15.6991459,17.9100007 15.4964462,17.8017254 15.3346958,17.6342052 C15.1729455,17.4728138 15.058287,17.2848644 14.984578,17.0867002 C15.2630343,16.5412382 15.4084048,15.9467458 15.4022624,15.3502105 C15.4288796,15.3502105 15.4575442,15.3604251 15.4841613,15.3604251 C16.0738334,15.3604251 16.6327935,15.2092484 17.1487566,14.9518393 C17.3514564,15.0315135 17.5357289,15.1479605 17.6933843,15.305266 M21.5242056,11.5238042 C21.8231366,11.8261577 21.984887,12.2306577 21.9766971,12.6617157 C21.9705547,13.0989026 21.7924246,13.5136172 21.4750663,13.8261854 C21.4689239,13.8343571 21.4586865,13.8343571 21.4525441,13.8425288 C20.9980052,14.2797156 20.3202917,14.3961626 19.7490469,14.2020843 C19.5340622,14.1285389 19.3313624,14.0182207 19.1655171,13.8507005 C19.0078618,13.691352 18.8932033,13.5054455 18.8153993,13.3031955 C19.1020455,12.7454758 19.2412736,12.1428118 19.2310363,11.5340189 C19.5483945,11.2275795 19.9599365,11.0580164 20.3940007,11.0580164 C20.8280649,11.0580164 21.2273221,11.2234936 21.5242056,11.5238042 M14.4071907,10.5248119 C14.7265964,10.2061149 15.1442809,10.032466 15.5906299,10.032466 C16.0185517,10.032466 16.4178089,10.1979432 16.7167399,10.4982538 C16.8743953,10.6576023 16.9911012,10.8414659 17.0648102,11.041673 C17.2879847,11.6259507 17.1528515,12.3246324 16.665553,12.8006349 C16.6614581,12.8067637 16.6532682,12.8088066 16.6512207,12.8149354 L16.6471258,12.8169784 C16.1884919,13.2541652 15.508731,13.3706122 14.9415811,13.1765339 C14.7225015,13.1009455 14.5218492,12.9926703 14.3600988,12.827193 C13.7335722,12.1979708 13.7560944,11.1642487 14.4071907,10.5248119 M10.5763694,14.3042308 C10.8937276,13.9916626 11.3134595,13.8159707 11.7557136,13.8159707 C12.1856829,13.8159707 12.58494,13.981448 12.8859185,14.2797156 C13.0435739,14.441107 13.1602799,14.6270136 13.2360364,14.8292636 C13.4530685,15.4114984 13.3199827,16.1060943 12.8347317,16.5861826 C12.8326842,16.5902685 12.8244943,16.5902685 12.8203994,16.5963972 C12.3576706,17.035627 11.6779097,17.1541169 11.1087123,16.9579957 C10.8916802,16.8844502 10.6910278,16.7741321 10.5251826,16.6086548 C10.2262516,16.3083442 10.0645012,15.9038443 10.0747386,15.4727862 C10.0788335,15.0335565 10.2590111,14.6188419 10.5763694,14.3042308 M13.7909014,21.4034095 C13.1623273,22.0081165 12.1017365,22.0162882 11.4997795,21.415667 C10.8834903,20.7946166 10.9019175,19.775195 11.5345866,19.1316723 C11.5734886,19.1337152 11.6123905,19.1439299 11.65334,19.1439299 C12.2409646,19.1439299 12.8040196,18.9927531 13.3199827,18.735344 C13.5185876,18.8129753 13.7049076,18.9314652 13.858468,19.0887708 C14.0202184,19.2481192 14.1348768,19.4340258 14.2065384,19.6342328 C14.4317604,20.2164677 14.2966272,20.9131065 13.8113762,21.3931948 C13.8031863,21.3972807 13.7970439,21.3972807 13.7909014,21.4034095 M18.6045096,22.424874 C17.9718406,23.0357098 16.9071548,23.0438816 16.3072453,22.4432604 C16.1536849,22.2839119 16.0349315,22.0959624 15.959175,21.8937125 C16.2376313,21.3482504 16.3850493,20.7558009 16.3809543,20.1592656 C16.4075715,20.1592656 16.4341886,20.1653944 16.4669482,20.1653944 C17.0504779,20.1653944 17.6135329,20.0183035 18.125401,19.7608945 C18.3260534,19.8405687 18.5144208,19.9590586 18.6679813,20.1122783 C18.8256367,20.2736697 18.9423426,20.4616191 19.0180991,20.6618262 C19.2330837,21.244061 19.1020455,21.9386569 18.6188419,22.4167023 C18.614747,22.4187452 18.6065571,22.4228311 18.6045096,22.424874 M23.4222128,23.4422527 C22.7956862,24.0653461 21.724858,24.0735178 21.1188061,23.464725 C20.9611507,23.3033336 20.8464922,23.117427 20.7686882,22.91722 C21.0430496,22.3717579 21.1904676,21.7793084 21.1843252,21.1848161 C21.2109423,21.1848161 21.2396069,21.1929878 21.2682716,21.1929878 C21.8579437,21.1929878 22.4209987,21.041811 22.9308194,20.7844019 C23.1376141,20.8640762 23.3198392,20.9805231 23.4774945,21.1398716 C24.0958313,21.7690938 24.0753566,22.800773 23.4222128,23.4422527 M24.9475799,19.687349 C24.8103992,19.5484298 24.6568388,19.4319829 24.5012309,19.3216647 C24.8247316,18.7700738 25.017194,18.1531092 25.0274313,17.4993719 C25.0397162,16.5065084 24.6670762,15.5769756 23.9750304,14.8782938 C23.8378497,14.7393747 23.6822418,14.6249706 23.5245864,14.5146525 C23.8480871,13.9651045 24.0405495,13.3440541 24.0507869,12.6903168 C24.0651192,11.6994961 23.6904317,10.7699634 22.9963385,10.0692387 C21.8477063,8.91089788 19.9742688,8.73112012 18.5574178,9.5013044 C18.4468542,9.34399885 18.3342433,9.18669331 18.1909202,9.04368827 C16.8068287,7.64836768 14.3703362,7.65245354 12.9473427,9.05390292 C12.1856829,9.80570083 11.8253277,10.8026502 11.8437549,11.789385 C10.8548257,11.7689557 9.84746912,12.1121678 9.11652138,12.8353647 C8.41219079,13.5299606 8.01498109,14.4554075 8.00064879,15.4380564 C7.98222153,16.43092 8.35690903,17.3645386 9.05100225,18.0632204 C9.18818292,18.2021395 9.34174337,18.3206294 9.49735129,18.4309476 C8.67631476,19.8466975 8.83601763,21.6689903 10.0276467,22.8681897 C10.717645,23.5648285 11.6431026,23.9488992 12.6299844,23.9488992 C13.2851757,23.9488992 13.9137498,23.7629926 14.4706624,23.4463386 C14.5832734,23.6016012 14.6979318,23.7568638 14.8351125,23.895783 C15.5251108,24.5903789 16.4464735,24.9724067 17.4374502,24.9724067 C18.0926415,24.9724067 18.7212156,24.788543 19.2801756,24.4698461 C19.3948341,24.6251087 19.5053976,24.7803713 19.6425783,24.9172476 C20.334624,25.6138864 21.2580342,26 22.244916,26 C23.2399877,26 24.1736352,25.6118435 24.8820608,24.9111188 C26.3480512,23.4708537 26.3746683,21.1255711 24.9475799,19.687349" id="Fill-10"></path>
            </g>
        </g>
    </g>
</svg>