<?xml version="1.0" encoding="UTF-8" standalone="no"?>
<svg width="40px" height="40px" viewBox="0 0 40 40" version="1.1" xmlns="http://www.w3.org/2000/svg" xmlns:xlink="http://www.w3.org/1999/xlink">
    <!-- Generator: Sketch 3.8.3 (29802) - http://www.bohemiancoding.com/sketch -->
    <title>Icons/steps</title>
    <desc>Created with Sketch.</desc>
    <defs></defs>
    <g id="Symbols" stroke="none" stroke-width="1" fill="none" fill-rule="evenodd">
        <g id="Icons/steps" fill="#FFFFFF">
            <path d="M29.2250717,19.0587587 L23.4907814,17.0991975 L23.6327946,15.7622081 L29.6642504,17.8227484 L29.2250717,19.0587587 Z M24.1461926,26.263935 C24.2675135,26.4655588 24.3344682,26.6954053 24.3344682,26.9295483 L24.3344682,36.6879144 L22.996948,36.6879144 L22.996948,28.8318923 C22.996948,28.5308844 22.8898677,28.2390611 22.696137,28.0055614 L16.3289898,20.3393028 L16.3269704,19.6822566 L16.3355725,19.6822566 L16.3355725,15.746 L17.4003435,15.746 C17.5451629,15.746 17.6730928,15.627938 17.6730928,15.4858468 L17.6730928,14.6915205 C17.6730928,14.5494551 17.5451629,14.4339144 17.4003435,14.4339144 L16.3355725,14.4339144 L16.3218301,14.4339144 L15.2511583,14.4339144 C15.1063127,14.4339144 14.9980522,14.5494551 14.9980522,14.6915205 L14.9980522,19.6697275 L14.9980522,22.2807006 L13.660532,22.2807006 L13.660532,14.4342489 L13.660532,13.1253792 L13.660532,12.7340433 C13.660532,12.6409881 13.7088401,12.5551623 13.7915827,12.5096509 L17.1254438,10.6698497 C17.324813,10.560252 17.5480215,10.4976578 17.7766064,10.4976578 L21.3682417,10.4976578 C22.1597127,10.4976578 22.7771488,11.174591 22.695324,11.9468434 L21.6678462,21.6448536 C21.6382896,21.9236589 21.7022021,22.2056287 21.8474935,22.4469495 L24.1461926,26.263935 Z M18.4727988,25.5741896 L18.3414333,27.0857379 L14.577153,36.685033 L13.3328133,36.214586 L16.240425,28.8132143 C16.2992234,28.6632764 16.3355725,28.504051 16.3355725,28.3433848 L16.3355725,23.1248346 C16.3355725,22.8827163 16.6392158,22.7746622 16.7949976,22.962419 L18.1812718,24.6367946 C18.399681,24.899932 18.502198,25.2361089 18.4727988,25.5741896 L18.4727988,25.5741896 Z M18.3244914,5.92660897 C18.3244914,4.48352068 19.5219392,3.30886966 20.9929754,3.30886966 C22.4640379,3.30886966 23.6614595,4.48352068 23.6614595,5.92660897 C23.6614595,7.36969726 22.4640379,8.54434828 20.9929754,8.54434828 C19.5219392,8.54434828 18.3244914,7.36969726 18.3244914,5.92660897 L18.3244914,5.92660897 Z M30.1042422,16.5874584 L23.8034202,14.4342489 L23.7604098,14.5543947 L24.1501527,10.8788829 C24.228909,10.1364226 23.6596761,9.47981382 22.8999646,9.43677227 L22.7653471,9.42918276 C24.0812835,8.78520602 24.9957015,7.46468196 24.9957015,5.92660897 C24.9957015,3.76133335 23.2002248,2 20.9929754,2 C18.7857523,2 16.9902493,3.76133335 16.9902493,5.92660897 C16.9902493,7.29699228 17.7118546,8.50817588 18.7994422,9.21086201 L18.6957713,9.21129937 L17.7771833,9.21129937 C17.3201448,9.21129937 16.8707904,9.32015102 16.4722356,9.53937221 L13.0034948,11.4446491 C12.5824644,11.676245 12.3230117,12.1096964 12.3230117,12.5832049 L12.3230117,14.4342489 L12.3230117,15.7431185 L12.3230117,19.6697275 L12.3230117,22.2874668 C12.3230117,23.0102973 12.9177362,23.5927861 13.6546574,23.5927861 L14.9980522,23.5927861 L14.9980522,28.1005461 C14.9980522,28.2611865 14.9633554,28.4204891 14.904557,28.570427 L12.0895489,35.7442162 C11.8248772,36.4190141 12.166653,37.1765763 12.8544793,37.4365493 L14.0980847,37.9069191 C14.7860422,38.1670208 15.5584208,37.830458 15.8230924,37.1554028 L19.6549831,27.3823464 L19.7304874,26.5067223 L21.3601903,28.4708886 C21.5540258,28.7043112 21.6594277,28.9961602 21.6594277,29.2972453 L21.6594277,36.685033 C21.6594277,37.4078635 22.2574304,38 22.9943516,38 L24.3285936,38 C25.0654886,38 25.6719885,37.4078635 25.6719885,36.685033 L25.6719885,26.5717348 C25.6719885,26.3375919 25.6034078,26.1076682 25.4819819,25.9060444 L23.2204187,22.1542258 C23.0750486,21.9128792 23.0114509,21.6321701 23.0409288,21.3532876 L23.3492403,18.4362127 L28.7867322,20.2943831 C29.4821379,20.5320507 30.2421117,20.1720762 30.4850158,19.4901519 L30.9249551,18.2552478 C31.1682002,17.5723716 30.8006182,16.8254347 30.1042422,16.5874584 L30.1042422,16.5874584 Z" id="Fill-1"></path>
        </g>
    </g>
</svg>